<?xml version="1.0" encoding="utf-8"?>
<!-- Generator: Adobe Illustrator 25.4.1, SVG Export Plug-In . SVG Version: 6.00 Build 0)  -->
<!DOCTYPE svg PUBLIC "-//W3C//DTD SVG 1.1//EN" "http://www.w3.org/Graphics/SVG/1.1/DTD/svg11.dtd" [
	<!ENTITY ns_extend "http://ns.adobe.com/Extensibility/1.0/">
	<!ENTITY ns_ai "http://ns.adobe.com/AdobeIllustrator/10.0/">
	<!ENTITY ns_graphs "http://ns.adobe.com/Graphs/1.0/">
	<!ENTITY ns_vars "http://ns.adobe.com/Variables/1.0/">
	<!ENTITY ns_imrep "http://ns.adobe.com/ImageReplacement/1.0/">
	<!ENTITY ns_sfw "http://ns.adobe.com/SaveForWeb/1.0/">
	<!ENTITY ns_custom "http://ns.adobe.com/GenericCustomNamespace/1.0/">
	<!ENTITY ns_adobe_xpath "http://ns.adobe.com/XPath/1.0/">
]>
<svg version="1.1" id="Layer_1" xmlns:x="&ns_extend;" xmlns:i="&ns_ai;" xmlns:graph="&ns_graphs;"
	 xmlns="http://www.w3.org/2000/svg" xmlns:xlink="http://www.w3.org/1999/xlink" x="0px" y="0px" viewBox="0 0 623 218"
	 style="enable-background:new 0 0 623 218;" xml:space="preserve">
<style type="text/css">
	.st0{fill:#F3AE49;}
	.st1{fill:#24272A;}
	.st2{font-family:'EurostileExtended-Roman';}
	.st3{font-size:50.2868px;}
</style>
<metadata>
	<sfw  xmlns="&ns_sfw;">
		<slices></slices>
		<sliceSourceBounds  bottomLeftOrigin="true" height="218" width="622" x="49" y="-218"></sliceSourceBounds>
	</sfw>
</metadata>
<g>
	<g>
		<g>
			<g>
				<g>
					<g>
						<g>
							<polygon class="st0" points="43.7,116.2 43.7,142.9 0.5,168.6 0.5,142 							"/>
							<polygon class="st0" points="86.8,90.5 86.8,117.1 43.7,142.9 43.7,116.2 							"/>
							<polygon class="st0" points="43.7,78.3 43.7,105 0.5,130.7 0.5,104.1 							"/>
							<polygon class="st0" points="43.7,154 43.7,180.6 0.5,206.4 0.5,179.7 							"/>
							<polygon class="st0" points="86.8,128.2 86.8,154.9 43.7,180.6 43.7,154 							"/>
							<polygon class="st0" points="86.8,165.6 86.8,192.3 43.7,218 43.7,191.4 							"/>
						</g>
					</g>
					<g>
						<path class="st0" d="M71.5,218v-5.7h-3.2v-0.6h7.2v0.6h-3.2v5.7H71.5z"/>
						<path class="st0" d="M81.5,218l-3.9-5.7v5.7h-0.8v-6.3H78l3.8,5.4l3.8-5.4h1.2v6.3h-0.8v-5.7l-4,5.7H81.5z"/>
					</g>
				</g>
			</g>
			<g>
				<g>
					<path class="st0" d="M168.9,209.5l-6.9,0.2h-3l-5.9-0.3c-4.7-0.5-7.1-3-7.1-7.6l-0.1-5.1v-4.5c0-0.5,0.1-1,0.2-1.7
						c0.1-0.7,0.3-1.5,0.4-2.5c0.3-1.7,1.2-3.1,2.5-4c1.4-0.9,3.2-1.4,5.5-1.4l3-0.3h3.4h1h3.8l3.8,0.1c0.9,0,2.1,0.2,3.7,0.5
						c1.6,0.3,2.7,1.2,3.3,2.6c0.6,1.4,0.9,3.2,0.9,5.5h-3.2V191c0-1.2-0.1-2.2-0.2-3c-0.1-0.8-0.5-1.3-1-1.7
						c-0.5-0.3-1.5-0.6-3.1-0.8c-0.7-0.1-1.6-0.1-2.6-0.2c-1-0.1-2.1-0.1-3.5-0.1l-4.3,0.1l-4.4,0.1c-1.1,0-2,0.1-2.7,0.3
						c-0.7,0.2-1.3,0.5-1.7,0.9c-0.6,0.6-1,1.5-1.1,2.6c-0.1,1.2-0.2,2.1-0.3,2.8c-0.1,0.7-0.1,1.4-0.1,2v3.6c0,3.4,0.3,5.7,1,7
						c0.7,1.3,2.5,1.9,5.4,1.9h6.2h5.9c2.4,0,4.1-0.3,5.1-0.9c1-0.6,1.5-2,1.5-4.3v-1.1h3.4c0,3.5-0.5,5.9-1.6,7.1
						C175.2,208.8,172.7,209.5,168.9,209.5z"/>
					<path class="st0" d="M198.8,182.4h11.8c5.5,0,9,0.7,10.6,2.2c1.6,1.5,2.4,4.9,2.4,10.3v1v0.8c0,1.9-0.1,3.9-0.3,6
						c-0.2,2.1-1,3.7-2.3,4.9c-1.3,1.2-3.2,1.8-5.8,1.8l-3.1,0.2h-3.5h-5.9h-0.7c-1.6,0-3.1-0.1-4.6-0.2c-1.5-0.2-2.8-0.4-3.8-0.9
						c-1-0.4-1.9-1.1-2.5-2.2s-1.1-2.4-1.3-4.2c-0.1-0.9-0.1-1.8-0.2-2.7c-0.1-1-0.1-2-0.1-3.2c0-0.7,0-1.5,0-2.2s0-1.6,0-2.4
						c0-0.9,0.2-2.2,0.6-4c0.4-1.8,1.4-3.1,2.9-3.9C194.4,182.8,196.3,182.4,198.8,182.4z M199.5,206.6l6.9,0.2h2.5h0.8
						c2,0,3.9-0.1,5.7-0.3c0.9,0,1.7-0.2,2.3-0.5c0.6-0.3,1.1-0.8,1.5-1.4c0.6-1.1,1-2.7,1-4.9v-5.5v-0.6v-0.5v-0.4c0-0.5,0-1,0-1.5
						c0-0.5-0.1-0.9-0.2-1.4c-0.1-1.2-0.4-2.2-0.8-2.8c-0.5-0.6-1-1.1-1.8-1.3c-0.7-0.2-1.5-0.4-2.3-0.4h-2.4l-6.3-0.1l-6.2,0.1
						c-3,0-5,0.4-6,1.2c-1,0.8-1.4,2.6-1.4,5.6l-0.2,4v2c0,3.4,0.4,5.6,1.1,6.8C194.4,206,196.4,206.6,199.5,206.6z"/>
					<path class="st0" d="M236.2,209.3v-26.6l5.4,0l24.5,24.1v-24.1h3.2v26.6h-5.3l-24.6-24.2v24.2H236.2z"/>
					<path class="st0" d="M307,186.1c-0.5-0.2-1.5-0.4-3-0.6c-0.7-0.1-1.5-0.1-2.5-0.2c-0.9-0.1-2-0.1-3.2-0.1h-1.1
						c-0.6,0-1.5,0-2.7,0.1c-1.2,0.1-2.1,0.1-2.8,0.1c-1.9,0.2-3.3,0.4-4.1,0.8s-1.3,0.9-1.6,1.5c-0.3,0.7-0.4,1.4-0.4,2.4
						c0,1.6,0.4,2.7,1.3,3.3c0.9,0.6,2.2,0.9,3.9,0.9h2.9h6.3h2.9c0.7,0,1.3,0,1.7,0c0.4,0,1.1,0.1,2.2,0.3c1.7,0.2,3.1,0.8,4.1,1.8
						c1.1,1,1.6,2.8,1.6,5.3c0,1.6-0.2,3-0.7,4s-1.4,1.9-2.6,2.5c-1.1,0.5-2.5,0.8-4.3,1c-1.7,0.2-3.6,0.3-5.7,0.3h-2.1
						c-0.7,0-1.4,0-2.2,0c-0.7,0-1.5,0-2.4,0c-0.6,0-1.2,0-1.8-0.1c-0.6-0.1-1.7-0.2-3.4-0.4c-1.6-0.2-2.9-0.9-3.8-2
						c-0.9-1.1-1.3-3.1-1.3-6h3.2v0.6c0,1.3,0.1,2.3,0.4,3c0.2,0.7,0.9,1.2,2,1.5c0.6,0.2,1.3,0.3,1.9,0.4c0.7,0.1,1.4,0.2,2.3,0.2
						l5.2,0.1c2.7,0,5.1-0.1,7-0.4c1.9-0.2,3.2-0.7,3.9-1.3c0.7-0.7,1.1-1.8,1.1-3.3c0-1.9-0.5-3.2-1.4-3.7s-2.4-0.8-4.5-0.8h-6.1
						l-7.1-0.2c-2.4,0-4.4-0.5-5.7-1.4c-1.4-1-2.1-2.6-2.1-4.9c0-1.8,0.3-3.3,0.9-4.5c0.6-1.2,1.6-2.1,3-2.6
						c0.7-0.3,1.5-0.5,2.4-0.7c0.9-0.2,1.7-0.3,2.6-0.3c1.9-0.2,4-0.2,6.3-0.2c0.8,0,1.6,0,2.3,0s1.3,0,1.9,0c0.8,0,2.3,0.1,4.2,0.4
						c1,0,1.8,0.2,2.5,0.5s1.4,0.8,2,1.5c1,1.1,1.6,2.9,1.6,5.2h-3.2c0-1.2-0.1-2.1-0.4-2.7C308,186.9,307.5,186.4,307,186.1z"/>
					<path class="st0" d="M334.3,209.3v-23.9h-13.4v-2.7H351v2.7h-13.5v23.9H334.3z"/>
					<path class="st0" d="M391.1,190.6c0,2.4-0.3,4-1,4.9c-0.7,0.9-2.2,1.5-4.6,1.9c1.7,0.2,3,0.7,3.9,1.3c0.9,0.6,1.3,1.8,1.3,3.4
						v7.2h-3.2v-5.9c0-1.9-0.4-3.2-1.2-3.9c-0.8-0.7-2.3-1-4.4-1h-18.1v10.8h-3.2v-26.6h21.7c3.2,0,5.5,0.5,6.9,1.6
						C390.4,185.4,391.1,187.5,391.1,190.6z M387.8,190.4c0-2-0.5-3.4-1.5-4c-1-0.6-2.6-1-4.9-1h-17.8v10.5h17.8
						c2.3,0,3.9-0.4,4.8-1.1C387.3,194.1,387.8,192.6,387.8,190.4z"/>
					<path class="st0" d="M434.5,201c0,3.7-0.8,6.1-2.3,7c-1.5,0.9-4.3,1.4-8.5,1.4l-5.3,0.2l-7.6-0.2c-2.6,0-4.6-0.6-5.8-1.7
						c-1.2-1.2-1.8-3-1.8-5.7v-19.3h3.2v18.8c0,2.1,0.5,3.4,1.4,4.1c1,0.6,2.6,0.9,4.9,0.9l5.7,0.2l6.2-0.2c2.5,0,4.2-0.3,5.2-0.9
						c1-0.6,1.4-2,1.4-4.3v-0.6v-18h3.2V201z"/>
					<path class="st0" d="M469.9,209.5l-6.9,0.2h-3l-5.9-0.3c-4.7-0.5-7.1-3-7.1-7.6l-0.1-5.1v-4.5c0-0.5,0.1-1,0.2-1.7
						c0.1-0.7,0.3-1.5,0.4-2.5c0.3-1.7,1.2-3.1,2.5-4c1.4-0.9,3.2-1.4,5.5-1.4l3-0.3h3.4h1h3.8l3.8,0.1c0.9,0,2.1,0.2,3.7,0.5
						c1.6,0.3,2.7,1.2,3.3,2.6c0.6,1.4,0.9,3.2,0.9,5.5h-3.2V191c0-1.2-0.1-2.2-0.2-3c-0.1-0.8-0.5-1.3-1-1.7
						c-0.5-0.3-1.5-0.6-3.1-0.8c-0.7-0.1-1.6-0.1-2.6-0.2c-1-0.1-2.1-0.1-3.5-0.1l-4.3,0.1l-4.4,0.1c-1.1,0-2,0.1-2.7,0.3
						c-0.7,0.2-1.3,0.5-1.7,0.9c-0.6,0.6-1,1.5-1.1,2.6c-0.1,1.2-0.2,2.1-0.3,2.8c-0.1,0.7-0.1,1.4-0.1,2v3.6c0,3.4,0.3,5.7,1,7
						c0.7,1.3,2.5,1.9,5.4,1.9h6.2h5.9c2.4,0,4.1-0.3,5.1-0.9c1-0.6,1.5-2,1.5-4.3v-1.1h3.4c0,3.5-0.5,5.9-1.6,7.1
						C476.1,208.8,473.7,209.5,469.9,209.5z"/>
					<path class="st0" d="M500.5,209.3v-23.9h-13.4v-2.7h30.1v2.7h-13.5v23.9H500.5z"/>
					<path class="st0" d="M529.9,209.3h-3.2v-26.6h3.2V209.3z"/>
					<path class="st0" d="M551.9,182.4h11.8c5.5,0,9,0.7,10.6,2.2c1.6,1.5,2.4,4.9,2.4,10.3v1v0.8c0,1.9-0.1,3.9-0.3,6
						c-0.2,2.1-1,3.7-2.3,4.9c-1.3,1.2-3.2,1.8-5.8,1.8l-3.1,0.2h-3.5h-5.9H555c-1.6,0-3.1-0.1-4.6-0.2c-1.5-0.2-2.8-0.4-3.8-0.9
						c-1-0.4-1.9-1.1-2.5-2.2c-0.6-1-1.1-2.4-1.3-4.2c-0.1-0.9-0.1-1.8-0.2-2.7c-0.1-1-0.1-2-0.1-3.2c0-0.7,0-1.5,0-2.2s0-1.6,0-2.4
						c0-0.9,0.2-2.2,0.6-4c0.4-1.8,1.4-3.1,2.9-3.9C547.5,182.8,549.5,182.4,551.9,182.4z M552.6,206.6l6.9,0.2h2.5h0.8
						c2,0,3.9-0.1,5.7-0.3c0.9,0,1.7-0.2,2.3-0.5c0.6-0.3,1.1-0.8,1.5-1.4c0.6-1.1,1-2.7,1-4.9v-5.5v-0.6v-0.5v-0.4c0-0.5,0-1,0-1.5
						c0-0.5-0.1-0.9-0.2-1.4c-0.1-1.2-0.4-2.2-0.8-2.8c-0.5-0.6-1-1.1-1.8-1.3c-0.7-0.2-1.5-0.4-2.3-0.4h-2.4l-6.3-0.1l-6.2,0.1
						c-3,0-5,0.4-6,1.2c-1,0.8-1.4,2.6-1.4,5.6l-0.2,4v2c0,3.4,0.4,5.6,1.1,6.8C547.6,206,549.5,206.6,552.6,206.6z"/>
					<path class="st0" d="M589.3,209.3v-26.6l5.4,0l24.5,24.1v-24.1h3.2v26.6h-5.3l-24.6-24.2v24.2H589.3z"/>
				</g>
				<g>
					<g>
						<g>
							<g>
								<path class="st1" d="M204.9,120.6l10.4,9.9v18.2l-12,10.9H146v-73h53.7l12,10.9v17.2L204.9,120.6z M197.1,102.8l-4.2-3.6
									h-32.3v17.2h30.8l5.7-5.2V102.8z M196.6,147.2l4.2-3.6v-9.4l-5.7-5.2h-34.4v18.2H196.6z"/>
								<path class="st1" d="M283.6,141.9V86.7h14.6v60.5l-14.6,13.6H244l-14.6-13.6V86.7H244v55.3l6.8,6.3h26.1L283.6,141.9z"/>
								<path class="st1" d="M370.2,136.7v-50h14.6v73h-14.1l-40.1-50v50H316v-73H330L370.2,136.7z"/>
								<path class="st1" d="M424.4,159.7v-24l-31.8-49h16.7l22.4,34.4l22.4-34.4h16.7l-31.8,49v24H424.4z"/>
								<path class="st1" d="M528.7,159.7l-8.3-19.3h-34.4l-8.3,19.3h-16.2l32.3-73h18.8l32.3,73H528.7z M503.1,101.3l-11.5,26.6
									h22.9L503.1,101.3z"/>
								<path class="st1" d="M607.9,136.7v-50h14.6v73h-14.1l-40.1-50v50h-14.6v-73h14.1L607.9,136.7z"/>
							</g>
						</g>
					</g>
				</g>
			</g>
		</g>
	</g>
	<text transform="matrix(1 0 0 1 146.0015 41.9141)" class="st1 st2 st3">Powered by</text>
</g>
</svg>
