<?xml version="1.0" encoding="utf-8"?>
<!-- Generator: Adobe Illustrator 25.4.1, SVG Export Plug-In . SVG Version: 6.00 Build 0)  -->
<!DOCTYPE svg PUBLIC "-//W3C//DTD SVG 1.1//EN" "http://www.w3.org/Graphics/SVG/1.1/DTD/svg11.dtd" [
	<!ENTITY ns_extend "http://ns.adobe.com/Extensibility/1.0/">
	<!ENTITY ns_ai "http://ns.adobe.com/AdobeIllustrator/10.0/">
	<!ENTITY ns_graphs "http://ns.adobe.com/Graphs/1.0/">
	<!ENTITY ns_vars "http://ns.adobe.com/Variables/1.0/">
	<!ENTITY ns_imrep "http://ns.adobe.com/ImageReplacement/1.0/">
	<!ENTITY ns_sfw "http://ns.adobe.com/SaveForWeb/1.0/">
	<!ENTITY ns_custom "http://ns.adobe.com/GenericCustomNamespace/1.0/">
	<!ENTITY ns_adobe_xpath "http://ns.adobe.com/XPath/1.0/">
]>
<svg version="1.1" id="Layer_1" xmlns:x="&ns_extend;" xmlns:i="&ns_ai;" xmlns:graph="&ns_graphs;"
	 xmlns="http://www.w3.org/2000/svg" xmlns:xlink="http://www.w3.org/1999/xlink" x="0px" y="0px" viewBox="0 0 32 32"
	 style="enable-background:new 0 0 32 32;" xml:space="preserve">
<style type="text/css">
	.st0{fill:#F5333F;}
	.st1{fill:#F9F9F9;}
</style>
<metadata>
	<sfw  xmlns="&ns_sfw;">
		<slices></slices>
		<sliceSourceBounds  bottomLeftOrigin="true" height="32" width="32" x="0" y="0"></sliceSourceBounds>
	</sfw>
</metadata>
<path class="st0" d="M27.3,32H4.7C2.1,32,0,29.9,0,27.3V4.7C0,2.1,2.1,0,4.7,0h22.6C29.9,0,32,2.1,32,4.7v22.6
	C32,29.9,29.9,32,27.3,32z"/>
<path class="st1" d="M28.4,19.2c0,2.6-0.4,4.5-1.4,5.4c-1,0.9-3,1.3-5.8,1.3h-4.5L13,25.8c-3.9,0-6.4-0.6-7.5-1.5
	c-1.1-1-1.7-2.6-1.7-4.7l-0.2-4.1c0-3.2,0.4-5.5,1.4-7C6,6.9,7.9,6.2,10.8,6.2l5.5-0.1c1.7,0,3,0,4,0c1.1,0,2.3,0.1,3.9,0.3
	c1.5,0.1,2.5,0.8,3.2,2s1,2.8,1,4.7h-5.7c0-0.9-0.2-1.4-0.7-1.8s-1.1-0.4-2.1-0.4h-1.7h-1.7h-3c-1.8,0-2.9,0.3-3.3,1
	c-0.4,0.7-0.6,2-0.6,4.1s0.2,3.5,0.7,4.2c0.4,0.7,1.8,1,3.7,1l2.3,0.1h3.1c1.2,0,2-0.1,2.5-0.4c0.6-0.3,0.8-1.1,0.8-2.3h5.8
	L28.4,19.2z"/>
</svg>
