<?xml version="1.0" encoding="utf-8"?>
<!-- Generator: Adobe Illustrator 25.4.1, SVG Export Plug-In . SVG Version: 6.00 Build 0)  -->
<!DOCTYPE svg PUBLIC "-//W3C//DTD SVG 1.1//EN" "http://www.w3.org/Graphics/SVG/1.1/DTD/svg11.dtd" [
	<!ENTITY ns_extend "http://ns.adobe.com/Extensibility/1.0/">
	<!ENTITY ns_ai "http://ns.adobe.com/AdobeIllustrator/10.0/">
	<!ENTITY ns_graphs "http://ns.adobe.com/Graphs/1.0/">
	<!ENTITY ns_vars "http://ns.adobe.com/Variables/1.0/">
	<!ENTITY ns_imrep "http://ns.adobe.com/ImageReplacement/1.0/">
	<!ENTITY ns_sfw "http://ns.adobe.com/SaveForWeb/1.0/">
	<!ENTITY ns_custom "http://ns.adobe.com/GenericCustomNamespace/1.0/">
	<!ENTITY ns_adobe_xpath "http://ns.adobe.com/XPath/1.0/">
]>
<svg version="1.1" id="Layer_1" xmlns:x="&ns_extend;" xmlns:i="&ns_ai;" xmlns:graph="&ns_graphs;"
	 xmlns="http://www.w3.org/2000/svg" xmlns:xlink="http://www.w3.org/1999/xlink" x="0px" y="0px" viewBox="0 0 468.4 100.3"
	 style="enable-background:new 0 0 468.4 100.3;" xml:space="preserve">
<style type="text/css">
	.st0{fill:#F5333F;}
</style>
<metadata>
	<sfw  xmlns="&ns_sfw;">
		<slices></slices>
		<sliceSourceBounds  bottomLeftOrigin="true" height="100.5" width="468.4" x="265.8" y="-0.1"></sliceSourceBounds>
	</sfw>
</metadata>
<g>
	<g>
		<g>
			<g>
				<polygon class="st0" points="28.4,28.4 28.4,35.9 110.9,35.9 110.9,64.4 28.4,64.4 28.4,71.9 110.9,71.9 110.9,100.3 0,100.3 
					0,0 110.9,0 110.9,28.4 				"/>
			</g>
		</g>
		<g>
			<g>
				<polygon class="st0" points="385.9,28.4 385.9,35.9 468.4,35.9 468.4,64.4 385.9,64.4 385.9,71.9 468.4,71.9 468.4,100.3 
					357.5,100.3 357.5,0 468.4,0 468.4,28.4 				"/>
			</g>
		</g>
		<path class="st0" d="M230.1,50.2c0,27.7-22.6,50.2-50.5,50.2h-59.9v-72h28.4v43.5h31.5c12.2,0,22-10.3,22-21.7s-9.9-21.7-22-21.7
			h-31.5V0h31.5C207.4,0,230.1,22.5,230.1,50.2z"/>
		<g>
			<g>
				<path class="st0" d="M267.6,50.2c0,11.4,9.9,21.7,22,21.7h59.5v28.4h-59.5c-27.8,0-50.5-22.5-50.5-50.2s22.6-50.2,50.5-50.2
					h59.5v28.4h-59.5C277.5,28.4,267.6,38.8,267.6,50.2z"/>
				<polygon class="st0" points="349.2,43.5 349.2,71.9 298.3,64.4 298.3,35.9 				"/>
			</g>
		</g>
	</g>
</g>
</svg>
