<?xml version="1.0" encoding="utf-8"?>
<!-- Generator: Adobe Illustrator 25.4.1, SVG Export Plug-In . SVG Version: 6.00 Build 0)  -->
<!DOCTYPE svg PUBLIC "-//W3C//DTD SVG 1.1//EN" "http://www.w3.org/Graphics/SVG/1.1/DTD/svg11.dtd" [
	<!ENTITY ns_extend "http://ns.adobe.com/Extensibility/1.0/">
	<!ENTITY ns_ai "http://ns.adobe.com/AdobeIllustrator/10.0/">
	<!ENTITY ns_graphs "http://ns.adobe.com/Graphs/1.0/">
	<!ENTITY ns_vars "http://ns.adobe.com/Variables/1.0/">
	<!ENTITY ns_imrep "http://ns.adobe.com/ImageReplacement/1.0/">
	<!ENTITY ns_sfw "http://ns.adobe.com/SaveForWeb/1.0/">
	<!ENTITY ns_custom "http://ns.adobe.com/GenericCustomNamespace/1.0/">
	<!ENTITY ns_adobe_xpath "http://ns.adobe.com/XPath/1.0/">
]>
<svg version="1.1" id="Layer_1" xmlns:x="&ns_extend;" xmlns:i="&ns_ai;" xmlns:graph="&ns_graphs;"
	 xmlns="http://www.w3.org/2000/svg" xmlns:xlink="http://www.w3.org/1999/xlink" x="0px" y="0px" viewBox="0 0 883.4 100"
	 style="enable-background:new 0 0 883.4 100;" xml:space="preserve">
<style type="text/css">
	.st0{fill:#F5333F;}
	.st1{fill:#B8BBBF;}
</style>
<metadata>
	<sfw  xmlns="&ns_sfw;">
		<slices></slices>
		<sliceSourceBounds  bottomLeftOrigin="true" height="100" width="883.4" x="-207.5" y="0.2"></sliceSourceBounds>
	</sfw>
</metadata>
<g>
	<g>
		<g>
			<g>
				<g>
					<g>
						<polygon class="st0" points="28.3,28.3 28.3,35.8 110.5,35.8 110.5,64.2 28.3,64.2 28.3,71.7 110.5,71.7 110.5,100 0,100 0,0 
							110.5,0 110.5,28.3 						"/>
					</g>
				</g>
				<g>
					<g>
						<polygon class="st0" points="384.7,28.3 384.7,35.8 466.9,35.8 466.9,64.2 384.7,64.2 384.7,71.7 466.9,71.7 466.9,100 
							356.4,100 356.4,0 466.9,0 466.9,28.3 						"/>
					</g>
				</g>
				<path class="st0" d="M229.4,50c0,27.6-22.6,50-50.3,50h-59.7V28.3h28.3v43.3H179c12.1,0,22-10.3,22-21.7
					c0-11.3-9.9-21.7-22-21.7h-31.4V0H179C206.8,0,229.4,22.4,229.4,50z"/>
				<g>
					<g>
						<path class="st0" d="M266.8,50c0,11.4,9.9,21.7,22,21.7h59.4V100h-59.4c-27.7,0-50.3-22.4-50.3-50c0-27.6,22.6-50,50.3-50
							h59.4v28.3h-59.4C276.6,28.3,266.8,38.7,266.8,50z"/>
						<polygon class="st0" points="348.1,43.3 348.1,71.7 297.4,64.2 297.4,35.8 						"/>
					</g>
				</g>
			</g>
		</g>
	</g>
	<g>
		<g>
			<path class="st1" d="M591.6,27.7c-6.5-5.8-14.6-8-24.9-8h-20.3c-19.2,0-30.6,12.3-30.6,30.1V50c0.1,18.2,11.4,30.3,30.6,30.3
				h20.3c11,0,18.9-2.5,24.9-8L603.9,88c-9.2,8.3-20.8,12-37.2,12h-20.3c-32.5,0-52-19.7-52-50v-0.1c0-30.1,19.4-49.9,52-49.9h20.3
				c15.5,0,27.7,3.4,37.2,12L591.6,27.7z"/>
			<path class="st1" d="M726.5,1.3h21.7v52.3c0,32.1-18.9,46.5-46.9,46.5h-17.5c-28,0-46.9-14.4-46.9-46.5V1.3h21.7v52.3
				c0,19.3,11.1,26.2,25.2,26.2h17.5c14.1,0,25.2-6.9,25.2-26.2V1.3z"/>
			<path class="st1" d="M883.4,1.3v20.3h-39.9v77.2h-21.7V21.5h-40V1.3H883.4z"/>
		</g>
	</g>
</g>
</svg>
