<?xml version="1.0" encoding="utf-8"?>
<!-- Generator: Adobe Illustrator 25.4.1, SVG Export Plug-In . SVG Version: 6.00 Build 0)  -->
<!DOCTYPE svg PUBLIC "-//W3C//DTD SVG 1.1//EN" "http://www.w3.org/Graphics/SVG/1.1/DTD/svg11.dtd" [
	<!ENTITY ns_extend "http://ns.adobe.com/Extensibility/1.0/">
	<!ENTITY ns_ai "http://ns.adobe.com/AdobeIllustrator/10.0/">
	<!ENTITY ns_graphs "http://ns.adobe.com/Graphs/1.0/">
	<!ENTITY ns_vars "http://ns.adobe.com/Variables/1.0/">
	<!ENTITY ns_imrep "http://ns.adobe.com/ImageReplacement/1.0/">
	<!ENTITY ns_sfw "http://ns.adobe.com/SaveForWeb/1.0/">
	<!ENTITY ns_custom "http://ns.adobe.com/GenericCustomNamespace/1.0/">
	<!ENTITY ns_adobe_xpath "http://ns.adobe.com/XPath/1.0/">
]>
<svg version="1.1" id="Layer_1" xmlns:x="&ns_extend;" xmlns:i="&ns_ai;" xmlns:graph="&ns_graphs;"
	 xmlns="http://www.w3.org/2000/svg" xmlns:xlink="http://www.w3.org/1999/xlink" x="0px" y="0px" viewBox="0 0 1000 100.3"
	 style="enable-background:new 0 0 1000 100.3;" xml:space="preserve">
<style type="text/css">
	.st0{fill:#B8BBBF;}
	.st1{fill:#F5333F;}
</style>
<metadata>
	<sfw  xmlns="&ns_sfw;">
		<slices></slices>
		<sliceSourceBounds  bottomLeftOrigin="true" height="100.3" width="1000" x="0" y="-100.3"></sliceSourceBounds>
	</sfw>
</metadata>
<g>
	<g>
		<g>
			<path class="st0" d="M620.5,66c0,13.6-2.5,22.6-7.4,27c-5,4.5-14.8,6.7-29.4,6.7l-22.8,0.4l-18.6-0.3c-19.7,0-32.4-2.6-38.1-7.7
				c-5.6-5.2-8.5-13.2-8.5-24.1l-0.9-20.6c0-16.1,2.4-27.9,7.1-35.4c4.7-7.5,14.3-11.3,28.9-11.3l28-0.7c8.2,0,14.9,0.1,20.2,0.2
				c5.3,0.1,11.7,0.6,19.3,1.4c7.6,0.8,13,4.1,16.2,9.9c3.2,5.8,4.9,13.8,4.9,23.9h-29c0-4.5-1.1-7.4-3.3-8.9
				c-2.2-1.5-5.7-2.3-10.5-2.3l-8.4-0.1h-8.2l-15.2,0.1c-9,0-14.6,1.7-16.6,5c-2,3.3-3,10.2-3,20.7c0,10.7,1.2,17.7,3.5,20.9
				c2.4,3.2,8.6,4.8,18.9,4.8l11.6,0.3l15.3-0.1c6,0,10.3-0.8,12.8-2.5c2.6-1.7,3.8-5.5,3.8-11.7h29.3L620.5,66z"/>
			<path class="st0" d="M792,57v5.7c0,15.3-4,25.4-12,30.3c-8,4.9-20.4,7.3-37,7.3l-24.5-0.1c-13,0-22.9-0.7-29.8-2.1
				c-6.9-1.4-12.4-4.9-16.6-10.5c-4.2-5.6-6.3-14.4-6.3-26.4V1h29.9v51.4c0,9.8,1.2,16.2,3.5,19.1c2.4,2.9,8.3,4.4,17.8,4.4
				l13.4,0.1l12.4-0.1c8.2,0,13.4-1.3,15.7-3.8c2.3-2.6,3.5-7.7,3.5-15.5V53V1H792V57z"/>
			<path class="st0" d="M874.6,99.1V25.5h-43.9V0.9h117.5v24.6h-43.7v73.7H874.6z"/>
		</g>
	</g>
	<g>
		<g>
			<g>
				<polygon class="st1" points="28.4,28.4 28.4,35.9 110.9,35.9 110.9,64.4 28.4,64.4 28.4,71.9 110.9,71.9 110.9,100.3 0,100.3 
					0,0 110.9,0 110.9,28.4 				"/>
			</g>
		</g>
		<g>
			<g>
				<polygon class="st1" points="385.9,28.4 385.9,35.9 468.4,35.9 468.4,64.4 385.9,64.4 385.9,71.9 468.4,71.9 468.4,100.3 
					357.5,100.3 357.5,0 468.4,0 468.4,28.4 				"/>
			</g>
		</g>
		<path class="st1" d="M230.1,50.2c0,27.7-22.6,50.2-50.5,50.2h-59.9V28.4h28.4v43.5h31.5c12.2,0,22-10.3,22-21.7
			c0-11.4-9.9-21.7-22-21.7h-31.5V0h31.5C207.4,0,230.1,22.5,230.1,50.2z"/>
		<g>
			<g>
				<path class="st1" d="M267.6,50.2c0,11.4,9.9,21.7,22,21.7h59.5v28.4h-59.5c-27.8,0-50.5-22.5-50.5-50.2
					c0-27.7,22.6-50.2,50.5-50.2h59.5v28.4h-59.5C277.5,28.4,267.6,38.8,267.6,50.2z"/>
				<polygon class="st1" points="349.2,43.5 349.2,71.9 298.3,64.4 298.3,35.9 				"/>
			</g>
		</g>
	</g>
	<g>
		<g>
			<path class="st0" d="M969.4,11.4V2.8h-5.1V0h13.6v2.8h-5.1v8.5H969.4z"/>
			<path class="st0" d="M996.7,11.4V2.7l-5,8.7h-2.8l-5-8.7v8.7h-3.3V0h5.3l4.3,7.6l4.4-7.6h5.3v11.4H996.7z"/>
		</g>
	</g>
</g>
</svg>
